<?xml version="1.0" encoding="UTF-8"?>
<svg xmlns="http://www.w3.org/2000/svg" xmlns:xlink="http://www.w3.org/1999/xlink" width="3003" height="3003" viewBox="0 0 3003 3003">
<path fill-rule="nonzero" fill="rgb(99.609375%, 99.609375%, 99.609375%)" fill-opacity="1" d="M 1.042969 0 C 0.765625 0 0.5 0.109375 0.304688 0.308594 C 0.109375 0.5 0 0.769531 0 1.039062 L 0 3001.042969 C 0 3001.617188 0.46875 3002.085938 1.042969 3002.085938 L 3001.039062 3002.085938 C 3001.320312 3002.085938 3001.589844 3001.976562 3001.78125 3001.78125 C 3001.980469 3001.585938 3002.089844 3001.320312 3002.089844 3001.042969 L 3002.089844 1.039062 C 3002.089844 0.46875 3001.621094 0 3001.039062 0 Z M 1.042969 0 "/>
<path fill-rule="nonzero" fill="rgb(13.719177%, 12.156677%, 12.547302%)" fill-opacity="1" d="M 2298.019531 1809.21875 L 2113.589844 1530.261719 L 2074.828125 1752.800781 L 1988.769531 1605.53125 L 2087.078125 1399.359375 L 2262.191406 1482.011719 L 2516.621094 1774.308594 L 2266.671875 1611.390625 L 2309.640625 1818.820312 Z M 1852.789062 1454.289062 L 1663.449219 1148.210938 L 1688.589844 1575.898438 L 1580.359375 1226.71875 L 1613.960938 888.921875 L 1897.558594 1149.179688 L 1817.371094 1233.308594 Z M 1361.878906 1281.390625 L 1273.820312 1219.078125 L 1220.609375 1575.898438 L 1210.539062 1287.160156 L 1329.929688 1053.078125 L 1398.738281 1202.679688 Z M 726.917969 1902.320312 L 662.945312 1781.390625 L 552.074219 1778.558594 L 696 1719.898438 L 824.996094 1520.421875 L 725.484375 1764.351562 Z M 2575.929688 1752.871094 C 2494.96875 1679.691406 2420.988281 1604.539062 2420.988281 1604.539062 C 2368.660156 1551.371094 2400.148438 1576.871094 2326.878906 1497.511719 C 2317.160156 1487 2281.28125 1453.519531 2281.28125 1453.519531 L 2093.21875 1363.808594 L 1961.691406 1117.851562 L 1599.320312 821.5 L 1427.738281 1134.25 L 1336.761719 1001.980469 L 929.484375 1262.269531 L 639.769531 1690.828125 L 515.652344 1749.179688 L 288.789062 2051.457031 C 438.480469 1985.050781 652.042969 2017.746094 652.042969 2017.746094 C 985.28125 2068.765625 1327.21875 1984.949219 1661.058594 2027.144531 C 1974.308594 2066.738281 2279.011719 2074.238281 2456 2041.960938 C 2594.878906 2016.632812 2682.820312 2051.457031 2682.820312 2051.457031 Z M 2575.929688 1752.871094 "/>
</svg>
